<svg data-v-423bf9ae="" xmlns="http://www.w3.org/2000/svg" viewBox="0 0 336.5409486436286 60" class="font"><!----><!----><!----><g data-v-423bf9ae="" id="463b9b2a-2751-4567-a546-bc772fae0bf8" fill="#14A9A9" transform="matrix(5.519779266944674,0,0,5.519779266944674,-6.458137282994784,-15.676173483537191)"><path d="M1.24 13.71L1.17 13.71L2.42 8.28L2.42 8.28Q2.88 6.29 3.81 5.09L3.81 5.09L3.81 5.09Q5.46 2.98 7.49 2.98L7.49 2.98L7.49 2.98Q9.52 2.98 10.19 5.09L10.19 5.09L10.19 5.09Q10.36 5.63 10.36 6.33L10.36 6.33L10.36 6.33Q10.36 7.19 10.10 8.28L10.10 8.28L10.10 8.28Q9.63 10.31 8.72 11.31L8.72 11.31L8.72 11.31Q8.16 11.93 7.58 12.28L7.58 12.28L9.52 12.28L9.51 12.35L8.74 13.44L4.96 13.44L4.98 13.37L5.74 12.28L5.74 12.28Q6.75 11.96 7.51 10.99L7.51 10.99L7.51 10.99Q8.34 9.95 8.59 8.86L8.59 8.86L3.66 8.86L2.68 13.10L1.24 13.71ZM3.94 7.70L3.94 7.70L8.86 7.70L8.86 7.70Q8.98 7 8.98 6.46L8.98 6.46L8.98 6.46Q8.98 5.98 8.89 5.62L8.89 5.62L8.89 5.62Q8.50 4.14 7.22 4.14L7.22 4.14L7.22 4.14Q5.93 4.14 4.87 5.61L4.87 5.61L4.87 5.61Q4.31 6.38 3.94 7.70ZM13.72 12.62L12.95 13.71L12.95 13.71Q11.53 13.71 11.53 12.69L11.53 12.69L11.53 12.69Q11.53 12.49 11.58 12.25L11.58 12.25L13.61 3.46L15.05 2.84L15.12 2.84L12.95 12.25L12.95 12.25Q12.88 12.55 13.21 12.55L13.21 12.55L13.73 12.55L13.72 12.62ZM18.68 12.48L17.92 13.58L17.92 13.58Q16.40 13.58 15.90 12.00L15.90 12.00L15.90 12.00Q15.76 11.57 15.76 11.03L15.76 11.03L15.76 11.03Q15.76 10.42 15.93 9.68L15.93 9.68L15.93 9.68Q16.28 8.24 16.96 7.36L16.96 7.36L16.96 7.36Q18.19 5.78 19.72 5.78L19.72 5.78L19.72 5.78Q21.27 5.78 21.74 7.36L21.74 7.36L21.74 7.36Q21.87 7.80 21.87 8.33L21.87 8.33L21.87 8.33Q21.87 8.94 21.70 9.68L21.70 9.68L21.10 12.25L21.10 12.25Q21.03 12.55 21.36 12.55L21.36 12.55L21.89 12.55L21.88 12.62L21.11 13.71L21.11 13.71Q19.68 13.71 19.68 12.69L19.68 12.69L19.68 12.69Q19.68 12.49 19.74 12.25L19.74 12.25L20.33 9.68L20.33 9.68Q20.52 8.83 20.52 8.31L20.52 8.31L20.52 8.31Q20.52 8.05 20.47 7.85L20.47 7.85L20.47 7.85Q20.22 6.95 19.45 6.95L19.45 6.95L19.45 6.95Q18.68 6.95 18.01 7.85L18.01 7.85L18.01 7.85Q17.60 8.42 17.30 9.68L17.30 9.68L17.30 9.68Q17.11 10.51 17.11 11.03L17.11 11.03L17.11 11.03Q17.11 11.31 17.17 11.51L17.17 11.51L17.17 11.51Q17.41 12.41 18.18 12.41L18.18 12.41L18.70 12.41L18.68 12.48ZM26.37 12.62L25.60 13.71L25.60 13.71Q24.17 13.71 24.17 12.69L24.17 12.69L24.17 12.69Q24.17 12.49 24.23 12.25L24.23 12.25L25.42 7.08L23.67 7.08L23.68 7.01L24.45 5.92L25.69 5.92L26.26 3.46L27.70 2.84L27.77 2.84L27.06 5.92L28.81 5.92L28.80 5.99L28.03 7.08L26.79 7.08L25.59 12.25L25.59 12.25Q25.53 12.55 25.85 12.55L25.85 12.55L26.38 12.55L26.37 12.62ZM34.98 8.90L29.29 8.90L29.31 8.83L30.13 7.66L35.82 7.66L35.81 7.72L34.98 8.90ZM36.66 12.02L36.66 12.02L36.66 12.02Q36.66 12.02 37.86 11.51L37.86 11.51L37.93 11.51L37.93 11.51Q38.17 12.41 38.95 12.41L38.95 12.41L38.95 12.41Q39.70 12.41 40.22 11.92L40.22 11.92L40.22 11.92Q40.65 11.53 40.76 11.04L40.76 11.04L40.76 11.04Q40.80 10.90 40.80 10.77L40.80 10.77L40.80 10.77Q40.80 10.45 40.59 10.25L40.59 10.25L40.59 10.25Q40.29 9.95 39.62 9.84L39.62 9.84L39.62 9.84Q38.77 9.70 38.32 9.32L38.32 9.32L38.32 9.32Q37.87 8.93 37.87 8.30L37.87 8.30L37.87 8.30Q37.87 8.07 37.93 7.80L37.93 7.80L37.93 7.80Q38.14 6.86 39.17 6.23L39.17 6.23L39.17 6.23Q39.89 5.78 40.69 5.78L40.69 5.78L40.69 5.78Q42.03 5.78 42.34 7.08L42.34 7.08L41.15 7.59L41.08 7.59L41.08 7.59Q40.91 6.95 40.41 6.95L40.41 6.95L40.41 6.95Q40.00 6.95 39.70 7.15L39.70 7.15L39.70 7.15Q39.35 7.39 39.24 7.83L39.24 7.83L39.24 7.83Q39.21 7.94 39.21 8.03L39.21 8.03L39.21 8.03Q39.21 8.30 39.44 8.43L39.44 8.43L39.44 8.43Q39.75 8.61 40.43 8.76L40.43 8.76L40.43 8.76Q41.28 8.95 41.73 9.37L41.73 9.37L41.73 9.37Q42.16 9.78 42.16 10.48L42.16 10.48L42.16 10.48Q42.16 10.77 42.08 11.12L42.08 11.12L42.08 11.12Q41.89 12.00 40.91 12.81L40.91 12.81L40.91 12.81Q39.98 13.58 38.68 13.58L38.68 13.58L38.68 13.58Q37.15 13.58 36.66 12.02ZM46.68 12.62L45.91 13.71L45.91 13.71Q44.48 13.71 44.48 12.69L44.48 12.69L44.48 12.69Q44.48 12.49 44.54 12.25L44.54 12.25L45.73 7.08L43.98 7.08L43.99 7.01L44.75 5.92L46.00 5.92L46.57 3.46L48.01 2.84L48.08 2.84L47.37 5.92L49.12 5.92L49.11 5.99L48.34 7.08L47.10 7.08L45.90 12.25L45.90 12.25Q45.83 12.55 46.16 12.55L46.16 12.55L46.69 12.55L46.68 12.62ZM52.17 12.48L51.40 13.58L51.40 13.58Q49.88 13.58 49.38 12.00L49.38 12.00L49.38 12.00Q49.25 11.57 49.25 11.03L49.25 11.03L49.25 11.03Q49.25 10.42 49.42 9.68L49.42 9.68L49.42 9.68Q49.76 8.24 50.44 7.36L50.44 7.36L50.44 7.36Q51.67 5.78 53.20 5.78L53.20 5.78L53.20 5.78Q54.75 5.78 55.22 7.36L55.22 7.36L55.22 7.36Q55.35 7.80 55.35 8.33L55.35 8.33L55.35 8.33Q55.35 8.94 55.18 9.68L55.18 9.68L54.58 12.25L54.58 12.25Q54.52 12.55 54.84 12.55L54.84 12.55L55.37 12.55L55.36 12.62L54.59 13.71L54.59 13.71Q53.16 13.71 53.16 12.69L53.16 12.69L53.16 12.69Q53.16 12.49 53.22 12.25L53.22 12.25L53.81 9.68L53.81 9.68Q54.00 8.83 54.00 8.31L54.00 8.31L54.00 8.31Q54.00 8.05 53.96 7.85L53.96 7.85L53.96 7.85Q53.70 6.95 52.93 6.95L52.93 6.95L52.93 6.95Q52.16 6.95 51.50 7.85L51.50 7.85L51.50 7.85Q51.08 8.42 50.78 9.68L50.78 9.68L50.78 9.68Q50.59 10.51 50.59 11.03L50.59 11.03L50.59 11.03Q50.59 11.31 50.65 11.51L50.65 11.51L50.65 11.51Q50.89 12.41 51.66 12.41L51.66 12.41L52.19 12.41L52.17 12.48ZM56.57 13.71L56.51 13.71L57.44 9.68L57.44 9.68Q57.76 8.25 58.46 7.36L58.46 7.36L58.46 7.36Q59.70 5.78 61.22 5.78L61.22 5.78L62.14 5.78L62.12 5.85L61.35 6.95L60.94 6.95L60.94 6.95Q60.17 6.95 59.51 7.85L59.51 7.85L59.51 7.85Q59.10 8.41 58.80 9.68L58.80 9.68L58.02 13.10L56.57 13.71Z"></path></g><!----><!----></svg>